<svg width="80" height="80" viewBox="0 0 80 80" fill="none" xmlns="http://www.w3.org/2000/svg">
<path d="M53.332 33.3346H56.6654V56.668H53.332V60.0013H49.9987V63.3346H46.6654V66.668H43.332V70.0013H39.9987V73.3346H36.6654V76.668H16.6654V73.3346H13.332V70.0013H9.9987V66.668H6.66536V63.3346H3.33203V46.668H6.66536V43.3346H9.9987V40.0013H13.332V36.668H16.6654V50.0013H13.332V60.0013H16.6654V63.3346H19.9987V66.668H29.9987V63.3346H33.332V60.0013H36.6654V56.668H39.9987V53.3346H43.332V50.0013H46.6654V40.0013H43.332V36.668H39.9987V33.3346H43.332V30.0013H46.6654V26.668H49.9987V30.0013H53.332V33.3346Z" fill="#F2AE01"/>
<path d="M76.6654 16.6654V33.332H73.332V36.6654H69.9987V39.9987H66.6654V43.332H63.332V29.9987H66.6654V19.9987H63.332V16.6654H59.9987V13.332H49.9987V16.6654H46.6654V19.9987H43.332V23.332H39.9987V26.6654H36.6654V29.9987H33.332V39.9987H36.6654V43.332H39.9987V46.6654H36.6654V49.9987H33.332V53.332H29.9987V49.9987H26.6654V46.6654H23.332V23.332H26.6654V19.9987H29.9987V16.6654H33.332V13.332H36.6654V9.9987H39.9987V6.66536H43.332V3.33203H63.332V6.66536H66.6654V9.9987H69.9987V13.332H73.332V16.6654H76.6654Z" fill="#F2AE01"/>
</svg>
