<svg width="400" height="120" viewBox="0 0 400 120" fill="none" xmlns="http://www.w3.org/2000/svg">
<path d="M107.581 57.8604C107.581 59.222 107.412 60.4383 107.076 61.5093C106.739 62.5802 106.28 63.5288 105.699 64.355C105.133 65.1659 104.475 65.862 103.725 66.4434C102.975 67.0247 102.188 67.499 101.361 67.8662C100.55 68.2334 99.7243 68.5011 98.8828 68.6694C98.0566 68.8377 97.2764 68.9219 96.542 68.9219H83.0479V62.9551H96.542C97.307 62.8939 97.9954 62.7409 98.6074 62.4961C99.2347 62.236 99.7702 61.8918 100.214 61.4634C100.658 61.035 101.002 60.5225 101.247 59.9258C101.491 59.3138 101.614 58.6253 101.614 57.8604V55.1523C101.537 54.4027 101.377 53.7142 101.132 53.0869C100.887 52.4596 100.55 51.9242 100.122 51.4805C99.709 51.0368 99.2041 50.6925 98.6074 50.4478C98.0107 50.1877 97.3223 50.0576 96.542 50.0576H83.0938C82.2982 50.0576 81.6938 50.2642 81.2808 50.6772C80.8677 51.0903 80.6611 51.687 80.6611 52.4673V77H74.6943V52.4673C74.6943 50.9373 74.9697 49.6369 75.5205 48.5659C76.0866 47.495 76.7827 46.6305 77.6089 45.9727C78.4504 45.3148 79.3607 44.8405 80.3398 44.5498C81.319 44.2438 82.2217 44.0908 83.0479 44.0908H96.542C97.8883 44.0908 99.097 44.2668 100.168 44.6187C101.239 44.9552 102.18 45.4142 102.991 45.9956C103.817 46.5617 104.513 47.2196 105.079 47.9692C105.66 48.7189 106.135 49.5068 106.502 50.333C106.884 51.1439 107.16 51.9701 107.328 52.8115C107.496 53.6377 107.581 54.418 107.581 55.1523V57.8604ZM147.237 63.6895C147.237 65.6937 146.893 67.5373 146.204 69.2202C145.516 70.9032 144.559 72.3566 143.335 73.5806C142.111 74.8045 140.658 75.7607 138.975 76.4492C137.307 77.1224 135.487 77.459 133.513 77.459H125.435C123.461 77.459 121.633 77.1224 119.95 76.4492C118.267 75.7607 116.814 74.8045 115.59 73.5806C114.366 72.3566 113.402 70.9032 112.698 69.2202C112.01 67.5373 111.666 65.6937 111.666 63.6895V57.4014C111.666 55.4124 112.01 53.5765 112.698 51.8936C113.402 50.1953 114.366 48.7419 115.59 47.5332C116.814 46.3092 118.267 45.353 119.95 44.6646C121.633 43.9761 123.461 43.6318 125.435 43.6318H133.513C135.487 43.6318 137.307 43.9761 138.975 44.6646C140.658 45.353 142.111 46.3092 143.335 47.5332C144.559 48.7419 145.516 50.1953 146.204 51.8936C146.893 53.5765 147.237 55.4124 147.237 57.4014V63.6895ZM141.27 57.4014C141.27 56.2233 141.079 55.16 140.696 54.2114C140.329 53.2476 139.801 52.429 139.113 51.7559C138.44 51.0674 137.621 50.5396 136.657 50.1724C135.709 49.7899 134.661 49.5986 133.513 49.5986H125.435C124.272 49.5986 123.209 49.7899 122.245 50.1724C121.297 50.5396 120.478 51.0674 119.79 51.7559C119.101 52.429 118.566 53.2476 118.183 54.2114C117.816 55.16 117.632 56.2233 117.632 57.4014V63.6895C117.632 64.8675 117.816 65.9385 118.183 66.9023C118.566 67.8509 119.101 68.6694 119.79 69.3579C120.478 70.0311 121.297 70.5589 122.245 70.9414C123.209 71.3086 124.272 71.4922 125.435 71.4922H133.467C134.63 71.4922 135.686 71.3086 136.634 70.9414C137.598 70.5589 138.424 70.0311 139.113 69.3579C139.801 68.6694 140.329 67.8509 140.696 66.9023C141.079 65.9385 141.27 64.8675 141.27 63.6895V57.4014ZM184.759 67.3154C184.759 68.4935 184.606 69.5568 184.3 70.5054C184.009 71.4386 183.619 72.2648 183.129 72.9839C182.64 73.703 182.066 74.3149 181.408 74.8198C180.75 75.3247 180.069 75.7378 179.366 76.0591C178.662 76.3804 177.943 76.6175 177.208 76.7705C176.489 76.9235 175.809 77 175.166 77H152.148V71.0332H175.166C176.313 71.0332 177.201 70.6966 177.828 70.0234C178.471 69.3503 178.792 68.4476 178.792 67.3154C178.792 66.7646 178.708 66.2598 178.54 65.8008C178.371 65.3418 178.126 64.944 177.805 64.6074C177.499 64.2708 177.117 64.0107 176.658 63.8271C176.214 63.6436 175.717 63.5518 175.166 63.5518H161.442C160.479 63.5518 159.438 63.3835 158.321 63.0469C157.204 62.695 156.164 62.1366 155.2 61.3716C154.252 60.6066 153.456 59.6045 152.813 58.3652C152.186 57.126 151.873 55.6113 151.873 53.8213C151.873 52.0312 152.186 50.5243 152.813 49.3003C153.456 48.061 154.252 47.0589 155.2 46.2939C156.164 45.5137 157.204 44.9552 158.321 44.6187C159.438 44.2668 160.479 44.0908 161.442 44.0908H181.752V50.0576H161.442C160.31 50.0576 159.423 50.4019 158.78 51.0903C158.153 51.7788 157.839 52.6891 157.839 53.8213C157.839 54.9688 158.153 55.8791 158.78 56.5522C159.423 57.2101 160.31 57.5391 161.442 57.5391H175.166H175.212C175.854 57.5544 176.535 57.6462 177.254 57.8145C177.973 57.9674 178.685 58.2122 179.389 58.5488C180.108 58.8854 180.789 59.3138 181.431 59.834C182.074 60.3389 182.64 60.9508 183.129 61.6699C183.634 62.389 184.032 63.2152 184.323 64.1484C184.613 65.0817 184.759 66.1374 184.759 67.3154ZM219.091 50.0576H205.941V77H199.974V50.0576H186.801V44.0908H219.091V50.0576ZM257.577 63.6895C257.577 65.6937 257.232 67.5373 256.544 69.2202C255.855 70.9032 254.899 72.3566 253.675 73.5806C252.451 74.8045 250.998 75.7607 249.315 76.4492C247.647 77.1224 245.827 77.459 243.853 77.459H235.775C233.801 77.459 231.973 77.1224 230.29 76.4492C228.607 75.7607 227.154 74.8045 225.93 73.5806C224.706 72.3566 223.742 70.9032 223.038 69.2202C222.35 67.5373 222.005 65.6937 222.005 63.6895V57.4014C222.005 55.4124 222.35 53.5765 223.038 51.8936C223.742 50.1953 224.706 48.7419 225.93 47.5332C227.154 46.3092 228.607 45.353 230.29 44.6646C231.973 43.9761 233.801 43.6318 235.775 43.6318H243.853C245.827 43.6318 247.647 43.9761 249.315 44.6646C250.998 45.353 252.451 46.3092 253.675 47.5332C254.899 48.7419 255.855 50.1953 256.544 51.8936C257.232 53.5765 257.577 55.4124 257.577 57.4014V63.6895ZM251.61 57.4014C251.61 56.2233 251.419 55.16 251.036 54.2114C250.669 53.2476 250.141 52.429 249.453 51.7559C248.779 51.0674 247.961 50.5396 246.997 50.1724C246.049 49.7899 245 49.5986 243.853 49.5986H235.775C234.612 49.5986 233.549 49.7899 232.585 50.1724C231.636 50.5396 230.818 51.0674 230.129 51.7559C229.441 52.429 228.905 53.2476 228.523 54.2114C228.156 55.16 227.972 56.2233 227.972 57.4014V63.6895C227.972 64.8675 228.156 65.9385 228.523 66.9023C228.905 67.8509 229.441 68.6694 230.129 69.3579C230.818 70.0311 231.636 70.5589 232.585 70.9414C233.549 71.3086 234.612 71.4922 235.775 71.4922H243.807C244.97 71.4922 246.026 71.3086 246.974 70.9414C247.938 70.5589 248.764 70.0311 249.453 69.3579C250.141 68.6694 250.669 67.8509 251.036 66.9023C251.419 65.9385 251.61 64.8675 251.61 63.6895V57.4014Z" fill="black"/>
<path d="M293.699 77H266.481C266.053 77 265.655 76.9235 265.288 76.7705C264.92 76.6175 264.599 76.411 264.324 76.1509C264.064 75.8755 263.857 75.5542 263.704 75.187C263.551 74.8198 263.475 74.422 263.475 73.9937V44.0908H269.441V71.0332H293.699V77ZM304.095 77H298.128V44.0908H304.095V77ZM343.958 74.4526C343.958 74.881 343.873 75.2788 343.705 75.646C343.552 76.0132 343.338 76.3345 343.062 76.6099C342.802 76.87 342.489 77.0765 342.122 77.2295C341.754 77.3825 341.364 77.459 340.951 77.459C340.584 77.459 340.209 77.3901 339.827 77.2524C339.459 77.1147 339.131 76.8929 338.84 76.5869L317.038 53.8213V77H311.071V46.6382C311.071 46.0262 311.24 45.4754 311.576 44.9858C311.928 44.481 312.372 44.1061 312.907 43.8613C313.473 43.6318 314.055 43.5783 314.651 43.7007C315.248 43.8078 315.761 44.0832 316.189 44.5269L337.991 67.2695V44.0908H343.958V74.4526ZM385.404 77H376.936L363.51 63.5518H359.311V57.5391H363.51L376.936 44.0908H385.404L368.49 60.5454L385.404 77ZM356.924 77H350.957V44.0908H356.924V77Z" fill="#F2AE01"/>
<path d="M46.668 47.1654H49.5846V67.582H46.668V70.4987H43.7513V73.4154H40.8346V76.332H37.918V79.2487H35.0013V82.1654H32.0846V85.082H14.5846V82.1654H11.668V79.2487H8.7513V76.332H5.83464V73.4154H2.91797V58.832H5.83464V55.9154H8.7513V52.9987H11.668V50.082H14.5846V61.7487H11.668V70.4987H14.5846V73.4154H17.5013V76.332H26.2513V73.4154H29.168V70.4987H32.0846V67.582H35.0013V64.6654H37.918V61.7487H40.8346V52.9987H37.918V50.082H35.0013V47.1654H37.918V44.2487H40.8346V41.332H43.7513V44.2487H46.668V47.1654Z" fill="#F2AE01"/>
<path d="M67.0846 32.5846V47.168H64.168V50.0846H61.2513V53.0013H58.3346V55.918H55.418V44.2513H58.3346V35.5013H55.418V32.5846H52.5013V29.668H43.7513V32.5846H40.8346V35.5013H37.918V38.418H35.0013V41.3346H32.0846V44.2513H29.168V53.0013H32.0846V55.918H35.0013V58.8346H32.0846V61.7513H29.168V64.668H26.2513V61.7513H23.3346V58.8346H20.418V38.418H23.3346V35.5013H26.2513V32.5846H29.168V29.668H32.0846V26.7513H35.0013V23.8346H37.918V20.918H55.418V23.8346H58.3346V26.7513H61.2513V29.668H64.168V32.5846H67.0846Z" fill="#F2AE01"/>
<path d="M46.668 47.1654H49.5846V67.582H46.668V70.4987H43.7513V73.4154H40.8346V76.332H37.918V79.2487H35.0013V82.1654H32.0846V85.082H14.5846V82.1654H11.668V79.2487H8.7513V76.332H5.83464V73.4154H2.91797V58.832H5.83464V55.9154H8.7513V52.9987H11.668V50.082H14.5846V61.7487H11.668V70.4987H14.5846V73.4154H17.5013V76.332H26.2513V73.4154H29.168V70.4987H32.0846V67.582H35.0013V64.6654H37.918V61.7487H40.8346V52.9987H37.918V50.082H35.0013V47.1654H37.918V44.2487H40.8346V41.332H43.7513V44.2487H46.668V47.1654Z" fill="#F2AE01"/>
<path d="M67.0846 32.5846V47.168H64.168V50.0846H61.2513V53.0013H58.3346V55.918H55.418V44.2513H58.3346V35.5013H55.418V32.5846H52.5013V29.668H43.7513V32.5846H40.8346V35.5013H37.918V38.418H35.0013V41.3346H32.0846V44.2513H29.168V53.0013H32.0846V55.918H35.0013V58.8346H32.0846V61.7513H29.168V64.668H26.2513V61.7513H23.3346V58.8346H20.418V38.418H23.3346V35.5013H26.2513V32.5846H29.168V29.668H32.0846V26.7513H35.0013V23.8346H37.918V20.918H55.418V23.8346H58.3346V26.7513H61.2513V29.668H64.168V32.5846H67.0846Z" fill="#F2AE01"/>
</svg>
